<?xml version="1.0" encoding="UTF-8" standalone="no"?>
<!DOCTYPE svg PUBLIC "-//W3C//DTD SVG 1.1//EN"
 "http://www.w3.org/Graphics/SVG/1.1/DTD/svg11.dtd">
<!-- Generated by graphviz version 2.26.3 (20100126.1600)
 -->
<!-- Title: G Pages: 1 -->
<svg width="552pt" height="1206pt"
 viewBox="0.00 0.00 552.00 1206.00" xmlns="http://www.w3.org/2000/svg" xmlns:xlink="http://www.w3.org/1999/xlink">
<g id="graph1" class="graph" transform="scale(1 1) rotate(0) translate(4 1202)">
<title>G</title>
<polygon fill="white" stroke="white" points="-4,5 -4,-1202 549,-1202 549,5 -4,5"/>
<g id="graph2" class="cluster"><title>cluster_Global</title>
<polyline fill="none" stroke="gray" points="192,-8 524,-8 "/>
<path fill="none" stroke="gray" d="M524,-8C530,-8 536,-14 536,-20"/>
<polyline fill="none" stroke="gray" points="536,-20 536,-1178 "/>
<path fill="none" stroke="gray" d="M536,-1178C536,-1184 530,-1190 524,-1190"/>
<polyline fill="none" stroke="gray" points="524,-1190 192,-1190 "/>
<path fill="none" stroke="gray" d="M192,-1190C186,-1190 180,-1184 180,-1178"/>
<polyline fill="none" stroke="gray" points="180,-1178 180,-20 "/>
<path fill="none" stroke="gray" d="M180,-20C180,-14 186,-8 192,-8"/>
<text text-anchor="middle" x="358" y="-1176.1" font-family="Times Roman,serif" font-size="11.00" fill="gray">\</text>
</g>
<g id="graph3" class="cluster"><title>cluster_\Munee</title>
<polyline fill="none" stroke="gray" points="200,-16 516,-16 "/>
<path fill="none" stroke="gray" d="M516,-16C522,-16 528,-22 528,-28"/>
<polyline fill="none" stroke="gray" points="528,-28 528,-1148 "/>
<path fill="none" stroke="gray" d="M528,-1148C528,-1154 522,-1160 516,-1160"/>
<polyline fill="none" stroke="gray" points="516,-1160 200,-1160 "/>
<path fill="none" stroke="gray" d="M200,-1160C194,-1160 188,-1154 188,-1148"/>
<polyline fill="none" stroke="gray" points="188,-1148 188,-28 "/>
<path fill="none" stroke="gray" d="M188,-28C188,-22 194,-16 200,-16"/>
<text text-anchor="middle" x="358" y="-1146.1" font-family="Times Roman,serif" font-size="11.00" fill="gray">Munee</text>
</g>
<g id="graph4" class="cluster"><title>cluster_\Munee\Asset</title>
<polyline fill="none" stroke="gray" points="213,-232 508,-232 "/>
<path fill="none" stroke="gray" d="M508,-232C514,-232 520,-238 520,-244"/>
<polyline fill="none" stroke="gray" points="520,-244 520,-1074 "/>
<path fill="none" stroke="gray" d="M520,-1074C520,-1080 514,-1086 508,-1086"/>
<polyline fill="none" stroke="gray" points="508,-1086 213,-1086 "/>
<path fill="none" stroke="gray" d="M213,-1086C207,-1086 201,-1080 201,-1074"/>
<polyline fill="none" stroke="gray" points="201,-1074 201,-244 "/>
<path fill="none" stroke="gray" d="M201,-244C201,-238 207,-232 213,-232"/>
<text text-anchor="middle" x="360.5" y="-1072.1" font-family="Times Roman,serif" font-size="11.00" fill="gray">Asset</text>
</g>
<g id="graph5" class="cluster"><title>cluster_\Munee\Asset\Filter</title>
<polyline fill="none" stroke="gray" points="403,-520 489,-520 "/>
<path fill="none" stroke="gray" d="M489,-520C495,-520 501,-526 501,-532"/>
<polyline fill="none" stroke="gray" points="501,-532 501,-1000 "/>
<path fill="none" stroke="gray" d="M501,-1000C501,-1006 495,-1012 489,-1012"/>
<polyline fill="none" stroke="gray" points="489,-1012 403,-1012 "/>
<path fill="none" stroke="gray" d="M403,-1012C397,-1012 391,-1006 391,-1000"/>
<polyline fill="none" stroke="gray" points="391,-1000 391,-532 "/>
<path fill="none" stroke="gray" d="M391,-532C391,-526 397,-520 403,-520"/>
<text text-anchor="middle" x="446" y="-998.1" font-family="Times Roman,serif" font-size="11.00" fill="gray">Filter</text>
</g>
<g id="graph6" class="cluster"><title>cluster_\Munee\Asset\Filter\Css</title>
<polyline fill="none" stroke="gray" points="421,-908 471,-908 "/>
<path fill="none" stroke="gray" d="M471,-908C477,-908 483,-914 483,-920"/>
<polyline fill="none" stroke="gray" points="483,-920 483,-970 "/>
<path fill="none" stroke="gray" d="M483,-970C483,-976 477,-982 471,-982"/>
<polyline fill="none" stroke="gray" points="471,-982 421,-982 "/>
<path fill="none" stroke="gray" d="M421,-982C415,-982 409,-976 409,-970"/>
<polyline fill="none" stroke="gray" points="409,-970 409,-920 "/>
<path fill="none" stroke="gray" d="M409,-920C409,-914 415,-908 421,-908"/>
<text text-anchor="middle" x="446" y="-968.1" font-family="Times Roman,serif" font-size="11.00" fill="gray">Css</text>
</g>
<g id="graph7" class="cluster"><title>cluster_\Munee\Asset\Filter\Image</title>
<polyline fill="none" stroke="gray" points="411,-664 481,-664 "/>
<path fill="none" stroke="gray" d="M481,-664C487,-664 493,-670 493,-676"/>
<polyline fill="none" stroke="gray" points="493,-676 493,-888 "/>
<path fill="none" stroke="gray" d="M493,-888C493,-894 487,-900 481,-900"/>
<polyline fill="none" stroke="gray" points="481,-900 411,-900 "/>
<path fill="none" stroke="gray" d="M411,-900C405,-900 399,-894 399,-888"/>
<polyline fill="none" stroke="gray" points="399,-888 399,-676 "/>
<path fill="none" stroke="gray" d="M399,-676C399,-670 405,-664 411,-664"/>
<text text-anchor="middle" x="446" y="-886.1" font-family="Times Roman,serif" font-size="11.00" fill="gray">Image</text>
</g>
<g id="graph8" class="cluster"><title>cluster_\Munee\Asset\Filter\JavaScript</title>
<polyline fill="none" stroke="gray" points="421,-528 471,-528 "/>
<path fill="none" stroke="gray" d="M471,-528C477,-528 483,-534 483,-540"/>
<polyline fill="none" stroke="gray" points="483,-540 483,-644 "/>
<path fill="none" stroke="gray" d="M483,-644C483,-650 477,-656 471,-656"/>
<polyline fill="none" stroke="gray" points="471,-656 421,-656 "/>
<path fill="none" stroke="gray" d="M421,-656C415,-656 409,-650 409,-644"/>
<polyline fill="none" stroke="gray" points="409,-644 409,-540 "/>
<path fill="none" stroke="gray" d="M409,-540C409,-534 415,-528 421,-528"/>
<text text-anchor="middle" x="446" y="-642.1" font-family="Times Roman,serif" font-size="11.00" fill="gray">JavaScript</text>
</g>
<g id="graph9" class="cluster"><title>cluster_\Munee\Asset\Type</title>
<polyline fill="none" stroke="gray" points="408,-286 484,-286 "/>
<path fill="none" stroke="gray" d="M484,-286C490,-286 496,-292 496,-298"/>
<polyline fill="none" stroke="gray" points="496,-298 496,-456 "/>
<path fill="none" stroke="gray" d="M496,-456C496,-462 490,-468 484,-468"/>
<polyline fill="none" stroke="gray" points="484,-468 408,-468 "/>
<path fill="none" stroke="gray" d="M408,-468C402,-468 396,-462 396,-456"/>
<polyline fill="none" stroke="gray" points="396,-456 396,-298 "/>
<path fill="none" stroke="gray" d="M396,-298C396,-292 402,-286 408,-286"/>
<text text-anchor="middle" x="446" y="-454.1" font-family="Times Roman,serif" font-size="11.00" fill="gray">Type</text>
</g>
<!-- \\Munee\\Asset\\Filter\\Css\\Minify -->
<g id="node6" class="node"><title>\\Munee\\Asset\\Filter\\Css\\Minify</title>
<polygon fill="none" stroke="black" points="474,-952 418,-952 418,-916 474,-916 474,-952"/>
<text text-anchor="middle" x="446" y="-931.1" font-family="Courier,monospace" font-size="11.00">Minify</text>
</g>
<!-- \\Munee\\Asset\\Filter -->
<g id="node19" class="node"><title>\\Munee\\Asset\\Filter</title>
<polygon fill="none" stroke="black" points="294,-762 210,-762 210,-726 294,-726 294,-762"/>
<text text-anchor="start" x="218" y="-749.433" font-family="Courier,monospace" font-size="11.00">«abstract»</text>
<text text-anchor="start" x="231.5" y="-736.233" font-family="Courier,monospace" font-size="11.00">Filter</text>
</g>
<!-- \\Munee\\Asset\\Filter\\Css\\Minify&#45;&gt;\\Munee\\Asset\\Filter -->
<g id="edge10" class="edge"><title>\\Munee\\Asset\\Filter\\Css\\Minify&#45;&gt;\\Munee\\Asset\\Filter</title>
<path fill="none" stroke="black" d="M417.223,-925.656C404.645,-920.895 390.417,-913.867 380,-904 329.774,-856.428 359.453,-812.243 308,-766 306.514,-764.665 304.938,-763.406 303.293,-762.22"/>
<polygon fill="none" stroke="black" points="304.949,-759.13 294.596,-756.878 301.285,-765.094 304.949,-759.13"/>
</g>
<!-- \\Munee\\Asset\\Filter\\Image\\Colorize -->
<g id="node8" class="node"><title>\\Munee\\Asset\\Filter\\Image\\Colorize</title>
<polygon fill="none" stroke="black" points="481,-870 411,-870 411,-834 481,-834 481,-870"/>
<text text-anchor="middle" x="446" y="-849.1" font-family="Courier,monospace" font-size="11.00">Colorize</text>
</g>
<!-- \\Munee\\Asset\\Filter\\Image\\Colorize&#45;&gt;\\Munee\\Asset\\Filter -->
<g id="edge12" class="edge"><title>\\Munee\\Asset\\Filter\\Image\\Colorize&#45;&gt;\\Munee\\Asset\\Filter</title>
<path fill="none" stroke="black" d="M410.468,-839.722C400.326,-835.622 389.465,-830.64 380,-825 344.46,-803.822 343.687,-786.929 308,-766 306.677,-765.224 305.321,-764.464 303.94,-763.722"/>
<polygon fill="none" stroke="black" points="305.078,-760.38 294.563,-759.082 301.973,-766.654 305.078,-760.38"/>
</g>
<!-- \\Munee\\Asset\\Filter\\Image\\Grayscale -->
<g id="node9" class="node"><title>\\Munee\\Asset\\Filter\\Image\\Grayscale</title>
<polygon fill="none" stroke="black" points="484,-816 408,-816 408,-780 484,-780 484,-816"/>
<text text-anchor="middle" x="446" y="-795.1" font-family="Courier,monospace" font-size="11.00">Grayscale</text>
</g>
<!-- \\Munee\\Asset\\Filter\\Image\\Grayscale&#45;&gt;\\Munee\\Asset\\Filter -->
<g id="edge14" class="edge"><title>\\Munee\\Asset\\Filter\\Image\\Grayscale&#45;&gt;\\Munee\\Asset\\Filter</title>
<path fill="none" stroke="black" d="M407.207,-787.202C377.746,-779.002 336.917,-767.637 304.529,-758.622"/>
<polygon fill="none" stroke="black" points="305.343,-755.215 294.771,-755.905 303.466,-761.959 305.343,-755.215"/>
</g>
<!-- \\Munee\\Asset\\Filter\\Image\\Negative -->
<g id="node10" class="node"><title>\\Munee\\Asset\\Filter\\Image\\Negative</title>
<polygon fill="none" stroke="black" points="481,-762 411,-762 411,-726 481,-726 481,-762"/>
<text text-anchor="middle" x="446" y="-741.1" font-family="Courier,monospace" font-size="11.00">Negative</text>
</g>
<!-- \\Munee\\Asset\\Filter\\Image\\Negative&#45;&gt;\\Munee\\Asset\\Filter -->
<g id="edge16" class="edge"><title>\\Munee\\Asset\\Filter\\Image\\Negative&#45;&gt;\\Munee\\Asset\\Filter</title>
<path fill="none" stroke="black" d="M410.417,-744C380.876,-744 338.424,-744 304.9,-744"/>
<polygon fill="none" stroke="black" points="304.807,-740.5 294.807,-744 304.807,-747.5 304.807,-740.5"/>
</g>
<!-- \\Munee\\Asset\\Filter\\Image\\Resize -->
<g id="node11" class="node"><title>\\Munee\\Asset\\Filter\\Image\\Resize</title>
<polygon fill="none" stroke="black" points="474,-708 418,-708 418,-672 474,-672 474,-708"/>
<text text-anchor="middle" x="446" y="-687.1" font-family="Courier,monospace" font-size="11.00">Resize</text>
</g>
<!-- \\Munee\\Asset\\Filter\\Image\\Resize&#45;&gt;\\Munee\\Asset\\Filter -->
<g id="edge18" class="edge"><title>\\Munee\\Asset\\Filter\\Image\\Resize&#45;&gt;\\Munee\\Asset\\Filter</title>
<path fill="none" stroke="black" d="M417.375,-697.968C387.798,-706.201 340.965,-719.237 304.676,-729.338"/>
<polygon fill="none" stroke="black" points="303.438,-726.049 294.743,-732.102 305.315,-732.793 303.438,-726.049"/>
</g>
<!-- \\Munee\\Asset\\Filter\\JavaScript\\Minify -->
<g id="node13" class="node"><title>\\Munee\\Asset\\Filter\\JavaScript\\Minify</title>
<polygon fill="none" stroke="black" points="474,-626 418,-626 418,-590 474,-590 474,-626"/>
<text text-anchor="middle" x="446" y="-605.1" font-family="Courier,monospace" font-size="11.00">Minify</text>
</g>
<!-- \\Munee\\Asset\\Filter\\JavaScript\\Minify&#45;&gt;\\Munee\\Asset\\Filter -->
<g id="edge20" class="edge"><title>\\Munee\\Asset\\Filter\\JavaScript\\Minify&#45;&gt;\\Munee\\Asset\\Filter</title>
<path fill="none" stroke="black" d="M420.238,-626.06C385.742,-650.243 324.456,-693.206 286.145,-720.063"/>
<polygon fill="none" stroke="black" points="284.048,-717.259 277.868,-725.866 288.066,-722.991 284.048,-717.259"/>
</g>
<!-- \\Munee\\Asset\\Filter\\JavaScript\\Packer -->
<g id="node14" class="node"><title>\\Munee\\Asset\\Filter\\JavaScript\\Packer</title>
<polygon fill="none" stroke="black" points="474,-572 418,-572 418,-536 474,-536 474,-572"/>
<text text-anchor="middle" x="446" y="-551.1" font-family="Courier,monospace" font-size="11.00">Packer</text>
</g>
<!-- \\Munee\\Asset\\Filter\\JavaScript\\Packer&#45;&gt;\\Munee\\Asset\\Filter -->
<g id="edge22" class="edge"><title>\\Munee\\Asset\\Filter\\JavaScript\\Packer&#45;&gt;\\Munee\\Asset\\Filter</title>
<path fill="none" stroke="black" d="M417.349,-562.087C405.082,-566.433 391.066,-572.645 380,-581 329.653,-619.013 288.228,-681.416 267.121,-716.969"/>
<polygon fill="none" stroke="black" points="263.974,-715.419 261.958,-725.82 270.02,-718.946 263.974,-715.419"/>
</g>
<!-- \\Munee\\Asset\\Type\\Css -->
<g id="node16" class="node"><title>\\Munee\\Asset\\Type\\Css</title>
<polygon fill="none" stroke="black" points="473,-438 419,-438 419,-402 473,-402 473,-438"/>
<text text-anchor="middle" x="446" y="-417.1" font-family="Courier,monospace" font-size="11.00">Css</text>
</g>
<!-- \\Munee\\Asset\\Type -->
<g id="node23" class="node"><title>\\Munee\\Asset\\Type</title>
<polygon fill="none" stroke="black" points="294,-384 210,-384 210,-348 294,-348 294,-384"/>
<text text-anchor="start" x="218" y="-371.433" font-family="Courier,monospace" font-size="11.00">«abstract»</text>
<text text-anchor="start" x="238" y="-358.233" font-family="Courier,monospace" font-size="11.00">Type</text>
</g>
<!-- \\Munee\\Asset\\Type\\Css&#45;&gt;\\Munee\\Asset\\Type -->
<g id="edge26" class="edge"><title>\\Munee\\Asset\\Type\\Css&#45;&gt;\\Munee\\Asset\\Type</title>
<path fill="none" stroke="black" d="M418.616,-412.378C389.116,-404.166 341.459,-390.901 304.655,-380.657"/>
<polygon fill="none" stroke="black" points="305.159,-377.164 294.586,-377.854 303.281,-383.907 305.159,-377.164"/>
</g>
<!-- \\Munee\\Asset\\Type\\Image -->
<g id="node17" class="node"><title>\\Munee\\Asset\\Type\\Image</title>
<polygon fill="none" stroke="black" points="473,-384 419,-384 419,-348 473,-348 473,-384"/>
<text text-anchor="middle" x="446" y="-363.1" font-family="Courier,monospace" font-size="11.00">Image</text>
</g>
<!-- \\Munee\\Asset\\Type\\Image&#45;&gt;\\Munee\\Asset\\Type -->
<g id="edge28" class="edge"><title>\\Munee\\Asset\\Type\\Image&#45;&gt;\\Munee\\Asset\\Type</title>
<path fill="none" stroke="black" d="M418.616,-366C389.116,-366 341.459,-366 304.655,-366"/>
<polygon fill="none" stroke="black" points="304.586,-362.5 294.586,-366 304.586,-369.5 304.586,-362.5"/>
</g>
<!-- \\Munee\\Asset\\Type\\JavaScript -->
<g id="node18" class="node"><title>\\Munee\\Asset\\Type\\JavaScript</title>
<polygon fill="none" stroke="black" points="488,-330 404,-330 404,-294 488,-294 488,-330"/>
<text text-anchor="middle" x="446" y="-309.1" font-family="Courier,monospace" font-size="11.00">JavaScript</text>
</g>
<!-- \\Munee\\Asset\\Type\\JavaScript&#45;&gt;\\Munee\\Asset\\Type -->
<g id="edge30" class="edge"><title>\\Munee\\Asset\\Type\\JavaScript&#45;&gt;\\Munee\\Asset\\Type</title>
<path fill="none" stroke="black" d="M403.905,-323.717C374.743,-331.834 335.71,-342.699 304.514,-351.383"/>
<polygon fill="none" stroke="black" points="303.378,-348.066 294.683,-354.119 305.255,-354.809 303.378,-348.066"/>
</g>
<!-- \\Munee\\Asset\\HeaderSetter -->
<g id="node20" class="node"><title>\\Munee\\Asset\\HeaderSetter</title>
<polygon fill="none" stroke="black" points="495,-512 397,-512 397,-476 495,-476 495,-512"/>
<text text-anchor="middle" x="446" y="-491.1" font-family="Courier,monospace" font-size="11.00">HeaderSetter</text>
</g>
<!-- \\Munee\\Asset\\NotFoundException -->
<g id="node21" class="node"><title>\\Munee\\Asset\\NotFoundException</title>
<polygon fill="none" stroke="black" points="511,-1056 381,-1056 381,-1020 511,-1020 511,-1056"/>
<text text-anchor="middle" x="446" y="-1035.1" font-family="Courier,monospace" font-size="11.00">NotFoundException</text>
</g>
<!-- \\Munee\\ErrorException -->
<g id="node25" class="node"><title>\\Munee\\ErrorException</title>
<polygon fill="none" stroke="black" points="307,-1130 197,-1130 197,-1094 307,-1094 307,-1130"/>
<text text-anchor="middle" x="252" y="-1109.1" font-family="Courier,monospace" font-size="11.00">ErrorException</text>
</g>
<!-- \\Munee\\Asset\\NotFoundException&#45;&gt;\\Munee\\ErrorException -->
<g id="edge24" class="edge"><title>\\Munee\\Asset\\NotFoundException&#45;&gt;\\Munee\\ErrorException</title>
<path fill="none" stroke="black" d="M398.542,-1056.1C371.432,-1066.44 337.264,-1079.48 308.742,-1090.36"/>
<polygon fill="none" stroke="black" points="307.4,-1087.12 299.304,-1093.96 309.894,-1093.66 307.4,-1087.12"/>
</g>
<!-- \\Munee\\Asset\\Registry -->
<g id="node22" class="node"><title>\\Munee\\Asset\\Registry</title>
<polygon fill="none" stroke="black" points="481,-276 411,-276 411,-240 481,-240 481,-276"/>
<text text-anchor="middle" x="446" y="-255.1" font-family="Courier,monospace" font-size="11.00">Registry</text>
</g>
<!-- \\Munee\\Dispatcher -->
<g id="node24" class="node"><title>\\Munee\\Dispatcher</title>
<polygon fill="none" stroke="black" points="488,-222 404,-222 404,-186 488,-186 488,-222"/>
<text text-anchor="middle" x="446" y="-201.1" font-family="Courier,monospace" font-size="11.00">Dispatcher</text>
</g>
<!-- \\Exception -->
<g id="node41" class="node"><title>\\Exception</title>
<ellipse fill="none" stroke="black" cx="62" cy="-1112" rx="62.2254" ry="18.3848"/>
<text text-anchor="middle" x="62" y="-1108.4" font-family="Times Roman,serif" font-size="14.00" fill="gray">\Exception</text>
</g>
<!-- \\Munee\\ErrorException&#45;&gt;\\Exception -->
<g id="edge32" class="edge"><title>\\Munee\\ErrorException&#45;&gt;\\Exception</title>
<path fill="none" stroke="black" d="M196.278,-1112C176.887,-1112 154.847,-1112 134.31,-1112"/>
<polygon fill="none" stroke="black" points="134.049,-1108.5 124.049,-1112 134.049,-1115.5 134.049,-1108.5"/>
</g>
<!-- \\Munee\\Request -->
<g id="node26" class="node"><title>\\Munee\\Request</title>
<polygon fill="none" stroke="black" points="478,-168 414,-168 414,-132 478,-132 478,-168"/>
<text text-anchor="middle" x="446" y="-147.1" font-family="Courier,monospace" font-size="11.00">Request</text>
</g>
<!-- \\Munee\\Response -->
<g id="node27" class="node"><title>\\Munee\\Response</title>
<polygon fill="none" stroke="black" points="481,-114 411,-114 411,-78 481,-78 481,-114"/>
<text text-anchor="middle" x="446" y="-93.1" font-family="Courier,monospace" font-size="11.00">Response</text>
</g>
<!-- \\Munee\\Utils -->
<g id="node28" class="node"><title>\\Munee\\Utils</title>
<polygon fill="none" stroke="black" points="473,-60 419,-60 419,-24 473,-24 473,-60"/>
<text text-anchor="middle" x="446" y="-39.1" font-family="Courier,monospace" font-size="11.00">Utils</text>
</g>
</g>
</svg>
